<svg width="26" height="43" fill="none" xmlns="http://www.w3.org/2000/svg"><path d="M16.795 30.714l6.887-11.073a.76.76 0 00.062-.122 12.542 12.542 0 001.852-6.552C25.596 6.031 19.953.39 13.016.39 6.082.389.44 6.03.44 12.967c0 2.31.642 4.573 1.856 6.554a.802.802 0 00.054.108l6.64 11.117c-5.185.77-8.588 2.938-8.588 5.573 0 3.344 5.416 5.866 12.597 5.866 7.182 0 12.597-2.522 12.597-5.866 0-2.691-3.486-4.868-8.802-5.605zM3.742 18.782a10.915 10.915 0 01-1.683-5.814c0-6.043 4.915-10.96 10.958-10.96 6.044 0 10.96 4.917 10.96 10.96 0 2.051-.581 4.062-1.682 5.815a.742.742 0 00-.062.123l-7.357 11.829a.804.804 0 00-.288.463l-1.754 2.821-9.024-15.1a.871.871 0 00-.068-.137zM13 40.565c-6.47 0-10.978-2.237-10.978-4.246 0-1.972 3.92-3.57 7.873-4.06l2.229 3.73a.808.808 0 00.688.395h.007a.81.81 0 00.687-.382l2.345-3.772c5.095.56 8.126 2.481 8.126 4.088 0 2.01-4.508 4.247-10.977 4.247z" fill="#20A0CD"/><path d="M17.645 12.968A4.65 4.65 0 0013 8.323a4.65 4.65 0 00-4.645 4.645A4.65 4.65 0 0013 17.613a4.65 4.65 0 004.645-4.645zm-7.67 0a3.03 3.03 0 013.024-3.026 3.029 3.029 0 013.026 3.026A3.03 3.03 0 0113 15.994a3.03 3.03 0 01-3.025-3.026z" fill="#20A0CD"/></svg>